# xmcd
#
# Track frame offsets: 
#        183
#        35795
#        68743
#        115945
#        126440
#        142568
#        163903
#        182298
#        198083
#        214838
#        232385
#        257260
#
# Disc length: 3797 seconds
#
# Revision: 1
# Processed by: cddbd v1.5.2PL0 Copyright (c) Steve Scherf et al.
# Submitted via: ExactAudioCopy v0.95b4
#
DISCID=a90ed30c
DTITLE=Evan Parker, Barry Guy, Paul Lytton Trio - Breaths and Heartbea
DTITLE=ts
DYEAR=1994
DGENRE=Jazz
TTITLE0=Breath And Heartbeat 1
TTITLE1=Breath And Heartbeat 2
TTITLE2=Breath And Heartbeat 3
TTITLE3=Breath And Heartbeat 4
TTITLE4=Breath And Heartbeat 5
TTITLE5=Breath And Heartbeat 6
TTITLE6=Breath And Heartbeat 7
TTITLE7=Breath And Heartbeat 8
TTITLE8=Breath And Heartbeat 9
TTITLE9=Breath And Heartbeat 10
TTITLE10=Breath And Heartbeat 11
TTITLE11=Breaths And Heartbeat
EXTD=YEAR: 1994
EXTT0=
EXTT1=
EXTT2=
EXTT3=
EXTT4=
EXTT5=
EXTT6=
EXTT7=
EXTT8=
EXTT9=
EXTT10=
EXTT11=
PLAYORDER=
